<svg width="43" height="43" viewBox="0 0 43 43" fill="none" xmlns="http://www.w3.org/2000/svg">
<path d="M38.5527 14.4096C38.5336 12.9767 38.2649 11.5581 37.7587 10.2172C37.3197 9.08621 36.6492 8.05903 35.7901 7.20133C34.931 6.34363 33.9021 5.67427 32.7692 5.23603C31.4433 4.73915 30.0426 4.47048 28.6267 4.44145C26.8037 4.3601 26.2258 4.3374 21.5982 4.3374C16.9706 4.3374 16.3775 4.3374 14.5678 4.44145C13.1525 4.47069 11.7525 4.73936 10.4272 5.23603C9.29414 5.67397 8.26509 6.34321 7.40592 7.20095C6.54675 8.05869 5.87639 9.08603 5.43772 10.2172C4.93902 11.5399 4.67048 12.9379 4.64372 14.3509C4.56223 16.1728 4.5376 16.7498 4.5376 21.3696C4.5376 25.9895 4.5376 26.5798 4.64372 28.3884C4.67214 29.8035 4.93934 31.1996 5.43772 32.5258C5.87712 33.6567 6.54799 34.6836 7.40744 35.541C8.26689 36.3983 9.29604 37.0673 10.4291 37.5051C11.7508 38.022 13.151 38.3099 14.5697 38.3565C16.3946 38.4378 16.9725 38.4624 21.6001 38.4624C26.2277 38.4624 26.8208 38.4624 28.6305 38.3565C30.0464 38.3286 31.4472 38.0606 32.773 37.5638C33.9056 37.125 34.9342 36.4555 35.7933 35.5979C36.6523 34.7402 37.323 33.7133 37.7625 32.5826C38.2609 31.2583 38.5281 29.8621 38.5565 28.4451C38.638 26.6252 38.6626 26.0482 38.6626 21.4264C38.6588 16.8065 38.6588 16.22 38.5527 14.4096ZM21.5868 30.1061C16.747 30.1061 12.8263 26.1919 12.8263 21.3602C12.8263 16.5284 16.747 12.6142 21.5868 12.6142C23.9103 12.6142 26.1386 13.5356 27.7815 15.1758C29.4244 16.816 30.3474 19.0406 30.3474 21.3602C30.3474 23.6798 29.4244 25.9043 27.7815 27.5445C26.1386 29.1847 23.9103 30.1061 21.5868 30.1061ZM30.6961 14.3301C30.4277 14.3303 30.162 14.2778 29.914 14.1754C29.6661 14.073 29.4408 13.9228 29.251 13.7333C29.0613 13.5439 28.9108 13.319 28.8082 13.0714C28.7057 12.8239 28.653 12.5586 28.6533 12.2907C28.6533 12.023 28.7061 11.7579 28.8087 11.5106C28.9113 11.2633 29.0617 11.0386 29.2513 10.8493C29.4409 10.66 29.666 10.5098 29.9137 10.4074C30.1615 10.305 30.427 10.2522 30.6951 10.2522C30.9633 10.2522 31.2288 10.305 31.4765 10.4074C31.7242 10.5098 31.9493 10.66 32.1389 10.8493C32.3285 11.0386 32.4789 11.2633 32.5815 11.5106C32.6842 11.7579 32.737 12.023 32.737 12.2907C32.737 13.4182 31.8236 14.3301 30.6961 14.3301Z" fill="#76902E"/>
<path d="M21.6001 26.6499C24.4996 26.6499 26.8501 24.2994 26.8501 21.3999C26.8501 18.5004 24.4996 16.1499 21.6001 16.1499C18.7006 16.1499 16.3501 18.5004 16.3501 21.3999C16.3501 24.2994 18.7006 26.6499 21.6001 26.6499Z" fill="#76902E"/>
</svg>
