<svg width="24" height="20" viewBox="0 0 24 20" fill="none" xmlns="http://www.w3.org/2000/svg">
<path d="M2.05084 0.927002C1.66893 0.927002 1.30266 1.07417 1.03261 1.33612C0.762554 1.59808 0.61084 1.95337 0.61084 2.32383C0.61084 2.69429 0.762554 3.04958 1.03261 3.31153C1.30266 3.57349 1.66893 3.72065 2.05084 3.72065H3.80764L4.24684 5.42757C4.2512 5.44723 4.256 5.46679 4.26124 5.48624L6.21676 13.071L4.93084 14.317C3.11644 16.077 4.40092 19.0857 6.967 19.0857H19.3308C19.7128 19.0857 20.079 18.9386 20.3491 18.6766C20.6191 18.4147 20.7708 18.0594 20.7708 17.6889C20.7708 17.3184 20.6191 16.9632 20.3491 16.7012C20.079 16.4392 19.7128 16.2921 19.3308 16.2921H6.967L8.407 14.8953H17.8908C18.1582 14.8951 18.4202 14.8228 18.6476 14.6864C18.875 14.5499 19.0587 14.3548 19.1782 14.1228L23.4982 5.74186C23.6079 5.52895 23.6597 5.2924 23.6486 5.05463C23.6376 4.81686 23.5641 4.58578 23.4351 4.3833C23.3062 4.18082 23.126 4.01366 22.9117 3.89769C22.6975 3.78172 22.4562 3.72078 22.2108 3.72065H6.77404L6.32764 1.9844C6.24963 1.68234 6.06981 1.41423 5.81674 1.22265C5.56367 1.03107 5.25186 0.92701 4.93084 0.927002H2.05084Z" fill="#2A512A"/>
</svg>
